<svg width="254" height="52" viewBox="0 0 254 52" fill="none" xmlns="http://www.w3.org/2000/svg">
<path d="M24.9564 11.246C27.3684 11.246 29.4384 11.768 31.1664 12.812C32.9304 13.82 34.1904 15.332 34.9464 17.348C35.7024 19.328 35.7744 21.812 35.1624 24.8L31.9224 41H21.6624L24.6864 25.772C25.0824 23.9 24.9564 22.46 24.3084 21.452C23.6964 20.444 22.5444 19.94 20.8524 19.94C19.1244 19.94 17.6664 20.48 16.4784 21.56C15.2904 22.64 14.4624 24.296 13.9944 26.528L11.0784 41H0.81843L8.81043 0.931998H19.0704L15.2904 19.886L13.4004 17.564C14.8044 15.368 16.5324 13.766 18.5844 12.758C20.6724 11.75 22.7964 11.246 24.9564 11.246ZM51.378 41.486C49.11 41.486 47.166 41.054 45.546 40.19C43.926 39.29 42.774 37.994 42.09 36.302C41.406 34.574 41.298 32.522 41.766 30.146L46.734 5.198H56.994L52.026 30.092C51.846 31.208 51.972 32.072 52.404 32.684C52.836 33.26 53.574 33.548 54.618 33.548C55.158 33.548 55.68 33.476 56.184 33.332C56.688 33.188 57.192 32.972 57.696 32.684L58.992 39.758C57.912 40.37 56.706 40.802 55.374 41.054C54.078 41.342 52.746 41.486 51.378 41.486ZM39.39 20.48L40.956 12.812H62.124L60.612 20.48H39.39ZM74.9503 41.486C72.6823 41.486 70.7383 41.054 69.1183 40.19C67.4983 39.29 66.3463 37.994 65.6623 36.302C64.9783 34.574 64.8703 32.522 65.3383 30.146L70.3063 5.198H80.5663L75.5983 30.092C75.4183 31.208 75.5443 32.072 75.9763 32.684C76.4083 33.26 77.1463 33.548 78.1903 33.548C78.7303 33.548 79.2523 33.476 79.7563 33.332C80.2603 33.188 80.7643 32.972 81.2683 32.684L82.5643 39.758C81.4843 40.37 80.2783 40.802 78.9463 41.054C77.6503 41.342 76.3183 41.486 74.9503 41.486ZM62.9623 20.48L64.5283 12.812H85.6963L84.1843 20.48H62.9623ZM106.069 41.486C103.729 41.486 101.695 41.036 99.9666 40.136C98.2386 39.2 96.9786 37.706 96.1866 35.654C95.3946 33.602 95.2146 30.866 95.6466 27.446C96.0066 24.098 96.7806 21.218 97.9686 18.806C99.1926 16.394 100.777 14.54 102.721 13.244C104.701 11.912 106.987 11.246 109.579 11.246C111.703 11.246 113.701 11.768 115.573 12.812C117.481 13.856 119.011 15.368 120.163 17.348C121.351 19.292 121.945 21.686 121.945 24.53C121.945 26.978 121.531 29.228 120.703 31.28C119.875 33.332 118.723 35.132 117.247 36.68C115.807 38.192 114.133 39.38 112.225 40.244C110.317 41.072 108.265 41.486 106.069 41.486ZM84.0366 51.476L91.9746 11.732H101.695L100.669 16.646L98.7786 26.312L97.4286 35.924L94.2966 51.476H84.0366ZM104.611 33.224C105.979 33.224 107.185 32.882 108.229 32.198C109.273 31.514 110.083 30.56 110.659 29.336C111.271 28.112 111.577 26.69 111.577 25.07C111.577 23.378 111.091 22.028 110.119 21.02C109.147 19.976 107.779 19.454 106.015 19.454C104.683 19.454 103.477 19.814 102.397 20.534C101.353 21.218 100.525 22.172 99.9126 23.396C99.3366 24.62 99.0486 26.042 99.0486 27.662C99.0486 29.354 99.5346 30.704 100.507 31.712C101.479 32.72 102.847 33.224 104.611 33.224ZM166.944 11.246C169.284 11.246 171.3 11.768 172.992 12.812C174.684 13.82 175.89 15.332 176.61 17.348C177.366 19.328 177.438 21.812 176.826 24.8L173.64 41H163.38L166.404 25.88C166.8 23.9 166.674 22.424 166.026 21.452C165.414 20.444 164.388 19.94 162.948 19.94C161.4 19.94 160.086 20.444 159.006 21.452C157.962 22.424 157.206 24.026 156.738 26.258L153.768 41H143.508L146.586 25.88C146.982 23.9 146.856 22.424 146.208 21.452C145.596 20.444 144.57 19.94 143.13 19.94C141.582 19.94 140.268 20.444 139.188 21.452C138.108 22.46 137.334 24.098 136.866 26.366L133.95 41H123.69L129.522 11.732H139.242L137.838 18.536L136.326 17.564C137.658 15.404 139.296 13.82 141.24 12.812C143.22 11.768 145.272 11.246 147.396 11.246C149.124 11.246 150.69 11.57 152.094 12.218C153.534 12.83 154.722 13.784 155.658 15.08C156.594 16.34 157.152 17.942 157.332 19.886L154.146 18.968C155.478 16.484 157.242 14.576 159.438 13.244C161.634 11.912 164.136 11.246 166.944 11.246ZM192.697 41.486C190.321 41.486 188.251 40.982 186.487 39.974C184.759 38.93 183.535 37.4 182.815 35.384C182.095 33.368 182.023 30.866 182.599 27.878L185.839 11.732H196.099L193.075 26.906C192.679 28.778 192.787 30.218 193.399 31.226C194.047 32.234 195.181 32.738 196.801 32.738C198.529 32.738 199.969 32.216 201.121 31.172C202.309 30.092 203.119 28.436 203.551 26.204L206.467 11.732H216.727L210.895 41H201.175L202.849 32.738L204.145 35.114C202.741 37.31 201.013 38.93 198.961 39.974C196.945 40.982 194.857 41.486 192.697 41.486ZM213.886 41L231.22 23.234L229.816 28.418L220.798 11.732H231.544L237.106 22.424L232.408 22.37L242.398 11.732H253.684L237.106 28.958L237.97 23.612L247.474 41H236.566L230.842 29.984H235.702L225.496 41H213.886Z" fill="#00ADD8"/>
</svg>